<svg width="321" height="319" viewBox="0 0 321 319" fill="none" xmlns="http://www.w3.org/2000/svg">
<path d="M206.248 213.995C220.603 215.734 232.918 224.532 243.054 225.737C254.318 227.076 271.353 219.721 288.726 228.378C293.197 230.606 296.868 233.284 295.5 236.611C293.116 242.41 288.1 244.683 277.11 246.259L275.937 246.42C267.442 247.543 258.311 247.815 235.163 247.967L227.254 248.026C199.037 248.27 182.72 249.583 161.589 251.261L159.435 251.434C120.524 254.616 89.4639 254.106 66.2554 250.579L65.5546 250.471C46.8038 247.552 35.5305 242.725 30.0275 237.247C26.7879 234.022 24.9218 231.015 24.8254 227.802C24.7291 224.588 29.5072 221.055 32.2275 219.721C39.8054 216.005 42.278 214.658 56.8463 212.756C63.1189 211.936 72.5164 212.002 83.379 211.637C122.347 210.33 182.547 211.123 206.248 213.995Z" fill="white"/>
<path fill-rule="evenodd" clip-rule="evenodd" d="M217.634 221.003C195.544 270.691 115.602 269.091 59.9782 235.177C49.3551 228.701 12.8387 198.173 48.7794 180.347C84.7201 162.521 73.2083 135.14 102.214 102.483C135.757 64.7156 198.223 45.3452 242.156 96.1592C353.816 225.31 225.073 204.272 217.634 221.003Z" fill="#F5E42A"/>
<path fill-rule="evenodd" clip-rule="evenodd" d="M69.9586 89.2473C67.9658 86.0672 65.9699 84.8465 64.0077 85.9008C62.3463 86.7935 62.0712 89.1802 62.9574 92.999L62.4256 93.284C61.6974 93.6743 61.4254 94.5772 61.818 95.3009C61.852 95.3635 61.8904 95.4236 61.933 95.4807L62.217 95.8583C66.3628 101.324 69.648 103.562 72.211 102.331C74.3653 101.297 74.7292 96.8897 73.6209 88.9153C73.5432 88.3568 73.0424 87.9599 72.4845 88.0002L72.4145 88.0075C72.288 88.0249 72.1656 88.0646 72.0531 88.1249L69.9586 89.2473ZM64.0833 92.1436L68.7039 89.6609L68.693 89.644C67.1023 87.1932 65.7554 86.4131 64.6195 87.0235L64.5673 87.0532C63.7286 87.5617 63.4969 89.1605 64.0327 91.8936L64.0833 92.1436ZM72.3904 89.3937L63.0353 94.4071C62.9312 94.4628 62.8924 94.5918 62.9485 94.6952C62.9533 94.7041 62.9588 94.7127 62.9649 94.7209L63.2405 95.0873C67.0299 100.082 69.8799 102.034 71.6526 101.182C72.9995 100.535 73.3529 96.6069 72.4159 89.5794L72.3904 89.3937ZM70.4789 97.4319C70.699 97.2029 70.8341 96.8925 70.8341 96.5509C70.8341 95.8461 70.2592 95.2749 69.5501 95.2749C68.841 95.2749 68.2661 95.8461 68.2661 96.5509C68.2661 97.2556 68.841 97.8269 69.5501 97.8269C69.6059 97.8269 69.661 97.8233 69.7149 97.8164L70.4448 99.148L70.4712 99.1902C70.5948 99.3642 70.8327 99.4224 71.0254 99.318C71.233 99.2057 71.3096 98.9473 71.1965 98.7411L70.4789 97.4319Z" fill="#FFB61D"/>
<path fill-rule="evenodd" clip-rule="evenodd" d="M206.248 213.995C220.603 215.734 232.918 224.532 243.054 225.737C254.318 227.076 271.353 219.721 288.726 228.378C293.197 230.606 296.868 233.284 295.5 236.611C293.116 242.41 288.1 244.683 277.11 246.259L275.937 246.42C267.442 247.543 258.311 247.815 235.163 247.967L227.254 248.026C199.037 248.27 182.72 249.583 161.589 251.261L159.435 251.434C120.524 254.616 89.4639 254.106 66.2554 250.579L65.5545 250.471C46.8038 247.552 35.5305 242.725 30.0274 237.247C26.7878 234.022 24.9217 231.015 24.8254 227.802C24.7291 224.588 29.5071 221.055 32.2274 219.721C39.8053 216.005 42.2779 214.658 56.8463 212.756C63.1189 211.936 72.5164 212.002 83.379 211.637C122.347 210.33 182.547 211.123 206.248 213.995ZM56.5247 215.447L55.57 215.574C41.9939 217.403 33.3154 220.732 29.2042 224.05L28.9476 224.263C25.7908 226.967 25.4957 230.006 30.0333 234.499C34.9948 239.411 47.649 244.953 65.8952 247.778C88.738 251.315 119.449 252.342 158.016 249.266L162.06 248.943C184.326 247.203 201.409 246.277 233.026 246.056L241.754 245.991C260.577 245.822 268.578 245.487 276.301 244.421L277.036 244.316C311.141 237.686 286.532 225.791 272.413 225.737C260.322 225.691 245.799 229.071 241.754 227.805C229.007 223.818 222.461 217.713 206.248 215.759L201.534 215.198L197.509 215.009C131.55 211.964 84.5422 211.808 56.5247 215.447Z" fill="#00160A"/>
<path d="M99.2432 61.4087C99.0089 61.4012 98.7745 61.4015 98.5403 61.4095C92.7684 61.6067 88.2377 66.3704 88.3423 72.0909L88.3469 72.2645L88.4177 74.408C88.6204 80.8464 88.7319 87.2594 88.7522 93.6469L88.7871 113.3C88.7948 120.374 88.7905 126.758 88.7696 133.01L88.741 139.64C88.6288 160.748 88.3262 175.562 87.7647 182.011L87.6563 183.217C86.9785 191.098 86.8381 202.417 87.2401 217.149C87.2447 217.319 87.2534 217.489 87.266 217.659C87.7102 223.632 92.8945 228.13 98.8914 227.787L99.0733 227.775L101.066 227.631C119.696 226.31 138.325 225.65 156.955 225.65C175.189 225.65 193.564 226.282 212.078 227.548C212.614 227.585 213.151 227.588 213.687 227.558C220.707 227.163 226.092 221.244 225.809 214.286L225.799 214.075L225.659 211.566C224.416 188.962 223.773 166.357 223.728 143.753L223.726 141.242C223.726 124.767 224.502 102.171 226.054 73.4463C226.072 73.1245 226.075 72.8021 226.065 72.48C225.87 66.2446 220.676 61.3335 214.422 61.4259L214.233 61.4303L204.767 61.7155C183.262 62.3458 167.603 62.6752 157.781 62.7035L156.097 62.7054L154.365 62.7009C144.338 62.6581 128.815 62.3164 107.787 61.6758L99.2432 61.4087Z" fill="white"/>
<path fill-rule="evenodd" clip-rule="evenodd" d="M213.499 60.8227C212.741 61.2356 211.742 61.526 210.501 61.6936C213.694 61.9754 216.204 61.9096 218.031 61.4965L217.636 61.4479C216.349 61.2864 214.97 61.078 213.499 60.8227" fill="#E7EAEE"/>
<path fill-rule="evenodd" clip-rule="evenodd" d="M93.434 212.93L93.5229 212.933C94.0746 212.971 94.4637 213.399 94.4129 213.872C94.3549 214.413 93.7731 214.938 93.1379 214.981C92.633 215.016 92.2823 214.63 92.3383 214.03C92.3971 213.402 92.8926 212.932 93.434 212.93Z" fill="#E7EAEE"/>
<path fill-rule="evenodd" clip-rule="evenodd" d="M103.538 221.145L103.626 221.148C104.178 221.186 104.567 221.614 104.516 222.087C104.458 222.628 103.877 223.153 103.241 223.196C102.737 223.231 102.386 222.845 102.442 222.245C102.501 221.617 102.996 221.147 103.538 221.145Z" fill="#E7EAEE"/>
<path fill-rule="evenodd" clip-rule="evenodd" d="M157.067 220.605C135.147 225.412 176.303 224.563 192.358 223.51C201.095 222.937 208.072 227.274 212.078 227.548C212.614 227.585 213.151 227.588 213.687 227.558C220.707 227.163 226.092 221.244 225.809 214.286L225.799 214.075L225.659 211.566C224.416 188.962 223.773 166.357 223.728 143.753L223.726 141.242C223.726 124.767 224.502 102.171 226.054 73.4463C226.072 73.1245 226.075 72.8021 226.065 72.48C225.87 66.2446 213.847 208.151 157.067 220.605Z" fill="#E7EAEE"/>
<path d="M222.076 214.794L222.153 214.797C222.553 214.829 222.88 215.242 222.833 215.747C222.78 216.305 222.296 216.808 221.812 216.846C221.472 216.873 221.184 216.509 221.235 215.885C221.287 215.246 221.69 214.804 222.076 214.794Z" fill="white"/>
<path fill-rule="evenodd" clip-rule="evenodd" d="M221.938 218.438C220.512 218.55 219.509 217.283 219.633 215.756C219.754 214.273 220.89 213.096 222.255 213.203C223.598 213.308 224.561 214.526 224.433 215.894C224.31 217.209 223.221 218.337 221.938 218.438ZM222.153 214.797L222.076 214.794C221.69 214.804 221.287 215.246 221.235 215.885C221.184 216.509 221.472 216.873 221.812 216.846C222.295 216.808 222.78 216.305 222.833 215.747C222.88 215.242 222.553 214.829 222.153 214.797Z" fill="white"/>
<path d="M208.5 70.6148C213.573 70.6148 217.685 74.7014 217.685 79.7426C217.685 79.9313 217.679 80.1199 217.667 80.3082L217.532 82.5443C217.286 86.7884 217.039 91.8274 216.794 97.6612L216.756 98.5953C216.156 114.289 216.137 151.416 216.699 209.976C216.748 215.017 212.675 219.142 207.602 219.191C207.479 219.192 207.355 219.19 207.232 219.187L106.462 216.097C101.796 215.954 97.9804 212.356 97.5922 207.733L97.5067 206.689C96.1796 190.065 96.1006 168.839 97.2697 143.01L97.4412 139.306C98.0382 125.713 98.0851 105.918 97.5817 79.9182C97.4851 74.9305 101.433 70.8003 106.43 70.6208L106.677 70.6152L208.5 70.6148Z" fill="white"/>
<path fill-rule="evenodd" clip-rule="evenodd" d="M140.749 178.258C145.201 178.444 149.773 177.66 153.737 175.735C158.703 173.323 162.439 169.278 164.507 163.478C167.231 155.838 166.231 147.578 162.315 140.307C158.829 133.836 153.349 128.91 148.298 127.693C148.298 127.693 162.315 147.287 160.307 157.998C157.236 174.377 140.749 178.258 140.749 178.258Z" fill="#E7EAEE"/>
<path fill-rule="evenodd" clip-rule="evenodd" d="M143.986 155.247C146.153 156.14 146.815 157.799 145.971 160.225L145.922 160.361C140.436 175.332 133.966 175.468 139.502 160.361C140.173 158.531 140.007 157.127 139.003 156.149C140.777 155.791 142.438 155.49 143.986 155.247" fill="#E7EAEE"/>
<path fill-rule="evenodd" clip-rule="evenodd" d="M109.624 137.747C111.043 133.556 113.116 130.405 116.99 127.914L117.482 127.604C118.318 127.082 119.348 126.492 120.186 126.895C121.251 127.408 122.793 129.275 121.855 130.008C121.219 130.505 118.6 131.034 116.626 132.752C114.296 134.781 112.619 138.05 112.619 138.851C112.619 141.462 108.785 140.222 109.624 137.747Z" fill="#E7EAEE"/>
<path fill-rule="evenodd" clip-rule="evenodd" d="M105.234 78.007C100.361 91.3041 100.394 93.9424 100.101 91.6505C99.1556 84.2383 98.4424 79.3675 99.566 76.4088C100.989 72.6629 104.555 71.926 105.473 72.3608C107.415 73.28 105.234 78.007 105.234 78.007Z" fill="#E7EAEE"/>
<path fill-rule="evenodd" clip-rule="evenodd" d="M185.408 146.343L183.787 146.294C181.864 146.245 180.477 146.257 179.314 146.347C178.38 146.42 177.683 146.546 177.288 146.67L177.21 146.696L177.202 146.733C177.159 146.95 177.128 147.24 177.114 147.59L177.11 147.725C177.084 148.778 177.212 150.184 177.466 151.754C177.675 153.042 177.96 154.38 178.257 155.507L178.331 155.785C178.447 156.205 178.558 156.571 178.655 156.856L178.69 156.958L178.733 156.973C179.33 157.184 180.518 157.209 182.808 157.042L184.363 156.921C185.41 156.844 186.174 156.811 186.927 156.821L194.236 156.973C195.259 156.992 196.183 157.007 197.088 157.019L198.73 157.037C202.83 157.274 207.336 157.096 207.897 156.082C209.606 152.989 210.412 146.618 209.606 146.575C208.156 146.498 206.4 146.408 205.566 146.419L203.64 146.454L201.894 146.467C201.097 146.472 200.265 146.475 199.372 146.475L189.355 146.452C188.704 146.448 188.066 146.432 186.917 146.394L185.408 146.343Z" fill="#E7EAEE"/>
<path fill-rule="evenodd" clip-rule="evenodd" d="M108.602 59.4175L99.3171 59.128C99.0319 59.1188 98.7465 59.1191 98.4614 59.1289C91.3637 59.3714 85.8078 65.286 86.0519 72.3394L86.1226 74.4794C86.2058 77.1221 86.3323 79.7604 86.4587 82.3944C86.6733 86.8671 86.8873 91.3273 86.8873 95.7751L86.9171 111.907C86.9457 134.403 86.8771 171.452 85.8717 182.183L85.7961 183.026C85.1425 190.629 84.5554 201.327 84.8907 215.118L84.9447 217.21C84.9503 217.416 84.9607 217.622 84.976 217.827C85.5181 225.117 91.9042 230.59 99.2397 230.051L101.23 229.907L101.56 229.884C101.626 229.994 101.693 230.105 101.76 230.214C102.082 230.743 102.383 231.237 102.453 231.479C102.63 232.091 102.649 232.784 102.547 234.351L102.443 235.82L102.415 236.297C102.265 239.226 102.605 240.968 104.043 242.28C105.892 243.968 107.851 243.789 111.864 243.422L112.045 243.406L113.078 243.306C114.272 243.192 115.615 243.284 116.53 243.347L116.531 243.347C116.794 243.366 117.022 243.381 117.2 243.389L117.538 243.406C119.841 243.497 120.207 242.744 120.408 240.882C120.519 239.855 120.375 239.048 119.768 236.965L119.314 235.429L119.163 234.895C118.454 232.293 118.519 230.994 119.442 230.365C119.666 230.213 120.602 229.936 121.681 229.617L121.682 229.617C122.792 229.289 124.054 228.916 124.849 228.587C135.551 228.15 146.253 227.932 156.955 227.932C168.2 227.932 179.498 228.173 190.85 228.656C190.775 228.778 190.761 228.954 190.841 229.199C190.931 229.477 191.273 229.669 191.709 229.914C192.867 230.564 194.691 231.589 194.266 235.57L194.268 235.733C194.332 238.871 196.246 240.712 199.324 241.336C201.383 241.754 203.725 241.628 206.275 241.188C207.537 240.971 208.351 240.186 208.739 238.99C208.954 238.33 209.03 237.737 209.081 236.556C209.081 236.556 208.519 230.419 211.642 229.806C211.735 229.812 211.828 229.818 211.921 229.825C212.282 229.849 212.644 229.861 213.007 229.86C213.055 229.871 213.105 229.884 213.154 229.897C213.304 229.937 213.447 229.914 213.575 229.848C213.656 229.844 213.736 229.841 213.817 229.836C222.173 229.366 228.565 222.253 228.092 213.948L227.951 211.441C226.665 188.041 226.022 164.642 226.022 141.242C226.022 125.307 226.751 103.604 228.21 76.134L228.347 73.5686C228.368 73.1825 228.372 72.7956 228.36 72.4091C228.124 64.851 221.767 58.9145 214.161 59.1494L209.341 59.2965C185.454 60.0162 168.266 60.3912 157.778 60.4215L156.099 60.4234C146.307 60.4159 130.474 60.0806 108.602 59.4175ZM208.507 229.598C203.2 229.258 197.904 228.969 192.62 228.733C195.15 229.953 196.052 232.232 196.102 235.384L196.103 235.57C196.103 237.609 197.7 238.94 199.847 239.376C200.072 239.422 200.302 239.471 200.538 239.522C202.021 239.842 203.717 240.207 205.597 239.901L205.883 239.853C207.183 239.376 207.183 234.733 207.183 234.733C207.198 234.355 207.211 234.109 207.233 233.809L207.261 233.472C207.424 231.782 207.779 230.519 208.507 229.598ZM104.661 230.85C104.536 230.418 104.358 230.036 104.128 229.707C108.633 229.404 113.139 229.14 117.644 228.915C116.94 229.694 116.874 230.747 116.848 232.005C116.826 233.089 117.046 234.241 117.51 235.865L117.538 235.962L117.962 237.397C118.481 239.17 118.637 239.911 118.594 240.532L118.584 240.637C118.522 241.214 117.777 241.864 116.518 241.791L116.293 241.78C115.754 241.698 110.437 241.791 110.437 241.791C107.982 242.038 106.8 241.698 105.596 240.6C104.787 239.862 104.571 238.552 104.73 236.044L104.829 234.636C104.954 232.796 104.944 231.934 104.71 231.031L104.661 230.85ZM98.5403 61.4095C98.7745 61.4015 99.0089 61.4012 99.2432 61.4087L107.787 61.6758C128.815 62.3164 144.338 62.6581 154.365 62.7009L156.097 62.7054L157.781 62.7035C167.603 62.6752 183.262 62.3458 204.767 61.7155L214.233 61.4303L214.422 61.4259C220.676 61.3336 225.87 66.2446 226.065 72.48C226.075 72.8021 226.072 73.1245 226.054 73.4463C224.502 102.171 223.726 124.767 223.726 141.242L223.728 143.753C223.773 166.357 224.416 188.962 225.659 211.566L225.799 214.075L225.809 214.286C226.092 221.244 220.707 227.163 213.687 227.558C213.151 227.588 212.614 227.585 212.078 227.548C193.564 226.282 175.189 225.65 156.955 225.65C138.325 225.65 119.696 226.31 101.066 227.631L99.0733 227.775L98.8914 227.787C92.8945 228.13 87.7102 223.632 87.266 217.659C87.2534 217.489 87.2447 217.319 87.2401 217.149C86.8381 202.417 86.9785 191.098 87.6563 183.217L87.7647 182.011C88.3262 175.562 88.6288 160.748 88.741 139.64L88.7696 133.01C88.7905 126.758 88.7948 120.374 88.7871 113.3L88.7522 93.6469C88.7319 87.2594 88.6204 80.8464 88.4177 74.408L88.3469 72.2645L88.3423 72.0909C88.2377 66.3704 92.7684 61.6067 98.5403 61.4095ZM217.685 79.7426C217.685 74.7014 213.573 70.6148 208.5 70.6148L106.677 70.6152L106.43 70.6208C101.433 70.8003 97.4851 74.9305 97.5817 79.9182C98.0851 105.918 98.0382 125.713 97.4412 139.306L97.2697 143.01C96.1005 168.839 96.1796 190.065 97.5067 206.689L97.5922 207.733C97.9804 212.356 101.796 215.954 106.462 216.097L207.232 219.187C207.285 219.188 207.338 219.189 207.391 219.19C207.461 219.191 207.532 219.191 207.602 219.191C212.675 219.142 216.748 215.017 216.699 209.976C216.137 151.416 216.156 114.289 216.756 98.5953L216.794 97.6612C217.039 91.8274 217.286 86.7884 217.532 82.5443L217.667 80.3082C217.679 80.1199 217.685 79.9313 217.685 79.7426ZM106.765 72.8967H208.5C212.304 72.8967 215.389 75.9617 215.389 79.7426C215.389 79.8841 215.384 80.0256 215.375 80.1668C215.135 84.016 214.895 88.6111 214.656 93.953L214.5 97.5659C213.893 111.983 213.834 146.508 214.322 201.195L214.403 209.998C214.44 213.779 211.385 216.873 207.581 216.909C207.529 216.909 207.478 216.909 207.426 216.908C207.385 216.908 207.344 216.907 207.302 216.906L106.533 213.816L106.381 213.81C102.951 213.631 100.167 210.96 99.8805 207.543C98.4665 190.704 98.3719 168.95 99.601 142.295L99.7164 139.829C100.296 127.003 100.378 108.61 99.9648 84.6361L99.8775 79.8743C99.8043 76.0941 102.829 72.9707 106.633 72.898C106.677 72.8972 106.721 72.8967 106.765 72.8967ZM103.246 65.8983C103.391 67.4496 102.259 68.6946 100.735 68.5904C99.3412 68.495 98.1151 67.3889 97.9722 66.0568L97.9637 65.9595C97.8751 64.6341 98.8968 63.5074 100.268 63.3629L100.371 63.3539C101.833 63.2539 103.106 64.4021 103.246 65.8983ZM100.549 64.9453L100.46 64.9487C99.9088 64.9867 99.5197 65.4148 99.5705 65.8874C99.6285 66.4285 100.21 66.9533 100.846 66.9968C101.35 67.0313 101.701 66.6453 101.645 66.046C101.586 65.4176 101.091 64.9476 100.549 64.9453ZM92.4227 77.998C90.8337 78.1381 89.7629 76.6189 89.895 74.7969C90.0245 73.0111 91.2586 71.5758 92.7867 71.7105L92.8853 71.7213C94.2888 71.9027 95.2584 73.2747 95.1789 74.8126L95.1716 74.9201C95.0407 76.4922 93.8545 77.8718 92.4227 77.998ZM92.6687 73.3034L92.5907 73.2996C92.1033 73.3056 91.5673 73.9601 91.4983 74.9117C91.4293 75.8623 91.8405 76.4457 92.2806 76.4069C92.8779 76.3542 93.4995 75.6312 93.5697 74.7884C93.6361 73.9905 93.1842 73.3492 92.6687 73.3034ZM211.406 65.8983C211.261 67.4497 212.392 68.6947 213.916 68.5904C215.31 68.4951 216.536 67.389 216.679 66.0569L216.688 65.9595C216.776 64.6341 215.754 63.5074 214.384 63.3629L214.28 63.3539C212.818 63.254 211.546 64.4022 211.406 65.8983ZM214.102 64.9454L214.191 64.9487C214.742 64.9867 215.131 65.4149 215.081 65.8875C215.023 66.4285 214.441 66.9534 213.806 66.9968C213.301 67.0314 212.95 66.6454 213.006 66.0461C213.065 65.4177 213.56 64.9476 214.102 64.9454ZM219.967 75.3843C219.113 74.123 219.63 72.5271 221.053 71.8779C222.425 71.2518 224.062 71.7755 224.708 73.0849L224.752 73.1785C225.313 74.4318 224.844 75.8744 223.646 76.4594L223.557 76.5007C222.326 77.0422 220.749 76.5378 219.967 75.3843ZM223.275 73.8037L223.233 73.7255C222.96 73.2601 222.302 73.0677 221.726 73.3307C221.176 73.5814 221.016 74.0762 221.299 74.494C221.655 75.0196 222.403 75.259 222.903 75.039C223.34 74.8469 223.518 74.298 223.275 73.8037ZM91.2887 212.102C90.1736 213.199 90.234 214.875 91.4685 215.768C92.5975 216.585 94.2521 216.52 95.2237 215.59L95.2932 215.521C96.2188 214.562 96.1657 213.046 95.2096 212.06L95.1362 211.987C94.0817 210.977 92.3641 211.045 91.2887 212.102ZM93.9698 213.093L94.0357 213.152C94.4335 213.534 94.4543 214.11 94.1096 214.44C93.7149 214.818 92.9298 214.849 92.4154 214.476C92.0064 214.18 91.9877 213.661 92.4185 213.237C92.8701 212.793 93.5538 212.749 93.9698 213.093ZM101.572 223.983C100.338 223.09 100.277 221.414 101.392 220.317C102.468 219.26 104.185 219.192 105.24 220.202L105.313 220.275C106.269 221.261 106.322 222.777 105.397 223.736L105.327 223.805C104.356 224.735 102.701 224.8 101.572 223.983ZM104.139 221.367L104.073 221.308C103.657 220.964 102.974 221.008 102.522 221.452C102.091 221.876 102.11 222.395 102.519 222.691C103.033 223.064 103.818 223.033 104.213 222.655C104.558 222.325 104.537 221.749 104.139 221.367ZM214.649 220.848C213.369 222.131 213.334 224.018 214.696 224.987C215.944 225.875 217.813 225.699 218.932 224.604C220.091 223.47 220.126 221.646 218.986 220.537C217.833 219.415 215.897 219.597 214.649 220.848ZM217.81 221.633L217.876 221.693C218.348 222.153 218.333 222.95 217.805 223.466C217.236 224.023 216.236 224.117 215.633 223.688C215.144 223.34 215.158 222.605 215.79 221.972C216.431 221.329 217.323 221.225 217.81 221.633ZM221.938 218.438C220.512 218.55 219.509 217.283 219.633 215.756C219.754 214.273 220.89 213.096 222.255 213.203C223.598 213.308 224.561 214.526 224.433 215.894C224.31 217.209 223.221 218.337 221.938 218.438ZM222.153 214.797L222.076 214.794C221.69 214.804 221.287 215.246 221.235 215.885C221.184 216.509 221.472 216.873 221.812 216.846C222.295 216.808 222.78 216.305 222.833 215.747C222.88 215.242 222.553 214.829 222.153 214.797Z" fill="#00160A"/>
<path fill-rule="evenodd" clip-rule="evenodd" d="M101.392 220.317C100.277 221.414 100.338 223.09 101.572 223.983C102.701 224.8 104.356 224.735 105.327 223.805L105.397 223.736C106.322 222.777 106.269 221.261 105.313 220.275L105.24 220.202C104.185 219.192 102.468 219.26 101.392 220.317ZM104.073 221.308L104.139 221.367C104.537 221.749 104.558 222.325 104.213 222.655C103.818 223.033 103.033 223.064 102.519 222.691C102.11 222.395 102.091 221.876 102.522 221.452C102.974 221.008 103.657 220.964 104.073 221.308Z" fill="#00160A"/>
<path d="M217.81 221.634L217.875 221.693C218.348 222.154 218.333 222.951 217.805 223.467C217.237 224.023 216.237 224.117 215.633 223.687C215.144 223.339 215.158 222.605 215.789 221.971C216.431 221.329 217.322 221.225 217.81 221.634Z" fill="white"/>
<path fill-rule="evenodd" clip-rule="evenodd" d="M116.451 123.684C115.921 123.867 115.443 124.115 114.852 124.477L114.398 124.759L114.173 124.902C110.748 127.099 108.462 129.831 106.835 133.53L106.748 133.731L106.683 133.711C106.251 133.585 105.86 133.524 105.442 133.558C104.55 133.632 103.718 134.163 103.421 135.153C102.958 136.699 103.149 138.467 103.751 140.277L103.864 140.609C104.452 142.287 105.102 143.426 106.183 143.758C107.62 144.2 112.586 142.244 114.317 140.469C115.553 139.203 115.058 137.654 113.882 136.76L113.774 136.681L113.661 136.603L113.532 136.52L113.618 136.367C113.678 136.262 113.741 136.155 113.807 136.047C114.509 134.89 115.387 133.796 116.276 133.021C116.619 132.723 117.015 132.45 117.466 132.195C118.165 131.8 120.951 130.713 121.42 130.347C122.927 129.169 122.753 127.464 121.8 125.985C121.207 125.066 120.276 124.204 119.375 123.771C118.429 123.315 117.439 123.343 116.451 123.684ZM118.474 125.619C119.539 126.132 121.081 127.999 120.143 128.732C119.507 129.229 116.888 129.758 114.914 131.477C112.584 133.505 110.907 136.774 110.907 137.575L111.173 137.674C112.626 138.23 113.18 138.685 112.834 139.039C111.293 140.619 107.104 141.891 106.794 141.796C106.489 141.702 104.682 138.14 105.402 135.74C105.498 135.419 106.335 135.663 107.912 136.471C109.331 132.28 111.404 129.129 115.278 126.638L115.77 126.328C116.606 125.806 117.636 125.216 118.474 125.619Z" fill="#00160A"/>
<path fill-rule="evenodd" clip-rule="evenodd" d="M119.586 170.945C111.079 161.706 110.587 145.945 119.777 135.795C125.487 129.49 138.907 125.428 148.298 127.692C153.349 128.91 158.829 133.835 162.314 140.307C166.23 147.578 167.231 155.838 164.507 163.478C162.439 169.278 158.703 173.323 153.737 175.734C149.772 177.66 145.201 178.444 140.749 178.258C132.715 177.922 122.725 174.354 119.586 170.945ZM160.29 141.384C157.089 135.441 152.101 130.958 147.756 129.91L147.498 129.85C138.932 127.919 126.575 131.699 121.484 137.322C113.103 146.578 113.554 161.013 121.28 169.404C123.947 172.3 133.368 175.665 140.845 175.978C144.939 176.149 149.136 175.429 152.729 173.684C157.164 171.53 160.479 167.942 162.343 162.716C164.837 155.719 163.917 148.117 160.29 141.384ZM155.866 163.248C160.948 154.382 154.06 135.241 144.438 133.643C135.394 132.142 131.966 134.322 128.066 137.683L127.312 138.34C119.678 145.047 119.678 159.455 127.136 166.14C129.01 167.82 137.255 172.129 143.582 170.811C147.778 169.937 153.616 167.173 155.866 163.248ZM134.632 136.144C135.111 135.973 135.616 135.832 136.154 135.723C136.082 135.889 136.02 136.065 135.969 136.252C135.684 137.294 135.713 138.186 136.021 140.356L136.231 141.794C136.249 141.921 136.265 142.037 136.28 142.156L136.327 142.522C136.654 145.269 136.357 146.702 135.121 147.493C133.99 148.216 132.877 148.489 130.336 148.783L129.384 148.89C128.212 149.024 127.596 149.117 126.856 149.283L126.52 149.35C125.495 149.565 124.643 149.831 123.982 150.166C124.418 146.241 126.035 142.508 128.833 140.05C131.472 137.731 132.803 136.795 134.632 136.144ZM144.06 135.894C143.689 135.832 143.327 135.777 142.975 135.728C143.048 135.914 143.111 136.111 143.163 136.319C143.377 137.19 143.414 137.962 143.362 139.723L143.337 140.483C143.31 141.214 143.298 141.649 143.294 142.066L143.294 142.567C143.315 144.794 143.666 146.275 144.528 147.278L144.624 147.384L144.662 147.401C144.716 147.422 144.783 147.446 144.864 147.473L144.949 147.5C145.146 147.563 145.394 147.632 145.711 147.715L146.241 147.85L148.504 148.4C148.948 148.51 149.344 148.61 149.722 148.71L150.345 148.876C152.216 149.388 153.65 149.888 154.694 150.444C153.136 143.512 148.846 136.689 144.06 135.894ZM154.944 155.543C155.073 155.461 155.196 155.377 155.311 155.293C155.367 157.879 154.931 160.269 153.871 162.118C152.35 164.772 148.124 167.3 143.998 168.37C144.102 168.108 144.186 167.824 144.252 167.52C144.452 166.584 144.484 165.512 144.405 163.993L144.356 163.176L144.281 162.102C144.139 159.955 144.174 159.057 144.362 158.842C145.209 157.874 146.383 157.504 149.37 157.078L150.062 156.98C152.559 156.618 153.73 156.311 154.944 155.543ZM137.393 167.258C137.425 167.643 137.553 168.036 137.762 168.407C136.703 168.185 135.601 167.865 134.479 167.457C131.967 166.543 129.532 165.214 128.674 164.445C125.95 162.004 124.383 158.319 123.971 154.439C124.676 154.762 125.609 155.035 126.768 155.308L126.946 155.349C127.414 155.457 127.892 155.557 128.456 155.668L130.069 155.979C133.679 156.716 135.543 157.571 136.394 158.712L136.48 158.831C137.044 159.649 137.2 160.574 137.246 162.977L137.271 164.688C137.291 165.713 137.323 166.393 137.393 167.258ZM140.109 135.82L140.212 135.829C141.187 135.945 141.393 136.843 141.278 140.231L141.239 141.406C141.23 141.76 141.226 142.045 141.226 142.357C141.227 144.482 141.483 146.132 142.171 147.454C142.042 147.386 141.896 147.348 141.74 147.348L141.584 147.35L141.545 147.351L141.527 147.343C141.264 147.246 140.976 147.277 140.743 147.413L140.719 147.428L140.638 147.441C138.635 147.773 136.644 148.962 135.577 150.536C134.432 152.226 134.489 154.07 135.795 155.649C134.552 154.997 132.903 154.475 130.727 154.018L130.024 153.877C129.611 153.798 129.096 153.7 129.096 153.7L128.68 153.618C128.279 153.539 127.924 153.464 127.583 153.387L127.413 153.349C126.377 153.11 125.558 152.864 124.986 152.608L124.895 152.566C124.719 152.483 124.579 152.403 124.48 152.331L124.467 152.321L124.492 152.295C124.563 152.226 124.67 152.146 124.816 152.062C125.318 151.774 126.145 151.511 127.279 151.293L127.566 151.232C128.07 151.129 128.565 151.055 129.337 150.963L130.59 150.821C133.44 150.491 134.759 150.166 136.239 149.22C138.398 147.839 138.81 145.681 138.355 142.081L138.304 141.701C138.279 141.515 138.251 141.321 138.214 141.073L138.072 140.1C137.816 138.291 137.779 137.515 137.947 136.851L137.963 136.791C138.168 136.042 138.69 135.732 140.109 135.82ZM137.974 157.384C138.001 157.419 138.028 157.454 138.054 157.489C139.031 158.797 139.255 159.953 139.311 162.904L139.334 164.463C139.351 165.438 139.377 166.081 139.432 166.825L139.453 167.093C139.496 167.62 140.402 168.459 141.403 168.269C142.183 168.121 142.484 166.852 142.337 164.027L142.317 163.673L142.203 162.016C142.023 159.301 142.08 158.4 142.703 157.613C141.209 158.172 139.471 158.145 137.974 157.384ZM145.114 155.899C146.041 155.551 147.221 155.315 148.859 155.076L149.747 154.95C151.823 154.649 152.826 154.402 153.676 153.906L153.834 153.81C154.796 153.201 154.888 153.08 154.46 152.737L154.322 152.63C153.565 152.064 152.104 151.499 150.001 150.913L149.557 150.791C149.077 150.662 148.584 150.536 148.003 150.393L145.586 149.804C145.13 149.69 144.765 149.594 144.467 149.507C146.335 151.47 146.644 153.679 145.361 155.566L145.288 155.67C145.232 155.748 145.174 155.825 145.114 155.899ZM141.006 149.231L141.137 149.212L141.229 149.268C144.233 151.083 144.902 153.06 143.791 154.612C142.686 156.156 140.259 156.689 138.518 155.592C136.499 154.321 136.164 152.939 137.101 151.556C137.892 150.389 139.474 149.465 141.006 149.231Z" fill="#00160A"/>
<path d="M171.477 144.322C171.53 144.129 171.579 144.042 171.595 144.015C171.86 143.838 172.426 143.637 173.401 143.5C174.369 143.364 175.558 143.312 176.875 143.31C178.187 143.307 179.582 143.352 180.96 143.4C181.041 143.403 181.122 143.405 181.203 143.408C182.487 143.453 183.755 143.496 184.877 143.498C186.194 143.499 187.534 143.504 188.883 143.508C192.183 143.519 195.543 143.531 198.792 143.498C198.935 143.496 199.141 143.492 199.398 143.486C200.435 143.465 202.299 143.426 204.202 143.487C205.387 143.525 206.546 143.601 207.492 143.737C207.965 143.805 208.358 143.884 208.661 143.972C208.811 144.015 208.925 144.057 209.009 144.093C209.095 144.131 209.126 144.154 209.123 144.152C209.156 144.177 209.291 144.31 209.445 144.692C209.593 145.057 209.72 145.55 209.809 146.158C209.987 147.372 209.989 148.886 209.813 150.382C209.636 151.885 209.289 153.276 208.826 154.272C208.316 155.366 207.885 155.551 207.765 155.564C202.065 156.179 192.423 155.969 184.732 155.802C183.871 155.783 183.034 155.765 182.23 155.748C181.255 155.728 180.239 155.793 179.27 155.868C179.034 155.886 178.802 155.905 178.573 155.923C177.842 155.982 177.146 156.038 176.473 156.066C175.592 156.103 174.836 156.087 174.211 155.984C173.692 155.897 173.332 155.761 173.084 155.598C173.059 155.54 173.027 155.462 172.99 155.362C172.871 155.041 172.726 154.582 172.571 154.014C172.261 152.883 171.93 151.4 171.684 149.887C171.437 148.364 171.287 146.866 171.316 145.686C171.331 145.094 171.39 144.638 171.477 144.322ZM173.148 155.727C173.148 155.728 173.143 155.721 173.134 155.703C173.143 155.718 173.148 155.727 173.148 155.727Z" stroke="#421EB7" stroke-width="2.68254"/>
<path fill-rule="evenodd" clip-rule="evenodd" d="M184.853 142.377C186.177 142.379 187.521 142.383 188.872 142.388C191.652 142.397 194.466 142.407 197.223 142.39L198.752 142.377C198.884 142.376 199.078 142.372 199.324 142.367C201.624 142.319 208.413 142.176 209.905 143.302C212.348 145.144 211.375 156.741 207.884 157.118C202.089 157.744 192.351 157.531 184.685 157.364H184.685L184.684 157.364C183.819 157.345 182.981 157.327 182.177 157.31C181.061 157.287 179.86 157.384 178.673 157.48C176.013 157.694 173.429 157.902 172.055 156.741C171.346 156.142 168.615 144.745 170.742 143.179C172.367 141.983 177.029 142.144 181.216 142.288C182.256 142.324 183.267 142.359 184.195 142.372L184.196 142.371L184.197 142.372C184.421 142.375 184.64 142.377 184.853 142.377ZM182.053 144.6C182.279 144.607 182.485 144.614 182.675 144.62C182.83 145.565 182.847 147.225 182.736 149.672L182.654 151.44C182.582 153.092 182.556 154.217 182.603 155.037L182.063 155.026C181.31 155.017 180.546 155.05 179.499 155.126L177.944 155.247C175.654 155.415 174.466 155.39 173.869 155.179L173.826 155.163L173.791 155.062C173.694 154.777 173.583 154.411 173.467 153.99L173.393 153.713C173.096 152.585 172.811 151.248 172.602 149.96C172.348 148.389 172.22 146.983 172.246 145.93L172.25 145.796C172.263 145.445 172.295 145.155 172.338 144.938L172.346 144.902L172.424 144.876C172.819 144.752 173.516 144.625 174.45 144.553C175.613 144.462 177 144.451 178.923 144.499L180.544 144.549L182.053 144.6ZM189.372 155.178L184.933 155.086C184.909 154.827 184.892 154.509 184.886 154.141L184.885 154.062C184.877 153.484 184.889 152.932 184.93 151.962L185.059 149.11C185.137 147.151 185.14 145.728 185.009 144.659L194.508 144.681C195.016 144.681 195.505 144.679 195.979 144.678C195.834 147.517 196.065 152.483 196.362 155.256C195.561 155.255 194.729 155.251 193.866 155.243L192.224 155.224C191.318 155.212 190.395 155.197 189.372 155.178ZM198.694 155.249C202.223 155.219 205.056 155.106 207.253 154.889L207.458 154.868L207.486 154.839C207.603 154.707 207.74 154.495 207.88 154.211L207.932 154.102C208.345 153.215 208.671 151.924 208.839 150.494C209.006 149.08 209.004 147.646 208.839 146.513C208.762 145.991 208.655 145.562 208.533 145.262L208.499 145.181L208.473 145.128L208.382 145.1C208.136 145.027 207.799 144.958 207.386 144.897C206.572 144.776 205.524 144.696 204.298 144.653C203.158 144.613 202 144.607 200.702 144.625L198.776 144.659L198.229 144.664C198.211 144.972 198.198 145.339 198.193 145.75L198.191 145.884C198.182 146.996 198.222 148.397 198.302 149.949L198.318 150.261C198.384 151.479 198.471 152.736 198.564 153.842L198.621 154.486C198.646 154.762 198.671 155.017 198.694 155.249ZM188.582 148.513L188.792 148.812C189.031 149.147 189.256 149.443 189.472 149.704C189.183 150.33 189.031 151.032 188.984 151.936C188.966 152.265 189.221 152.545 189.551 152.562C189.882 152.579 190.164 152.327 190.182 151.998C190.209 151.477 190.273 151.048 190.387 150.667C191.051 151.244 191.632 151.458 192.243 151.469L192.361 151.469C192.692 151.469 192.961 151.203 192.961 150.873C192.961 150.565 192.725 150.311 192.423 150.28L192.361 150.277L192.261 150.277C191.869 150.269 191.475 150.105 190.937 149.566C191.112 149.323 191.323 149.082 191.575 148.824L192.219 148.192C192.454 147.96 192.456 147.583 192.222 147.349C191.989 147.115 191.61 147.113 191.374 147.345L190.836 147.872C190.574 148.132 190.344 148.383 190.144 148.633L189.925 148.339C189.813 148.184 189.695 148.018 189.571 147.839C189.384 147.567 189.01 147.498 188.737 147.685C188.464 147.871 188.395 148.242 188.582 148.513ZM204.96 147.946L204.966 147.582C204.969 147.253 204.702 146.984 204.371 146.981C204.04 146.979 203.769 147.243 203.766 147.572C203.763 147.934 203.754 148.259 203.739 148.549C203.431 148.453 203.1 148.373 202.737 148.303L201.994 148.165C201.668 148.104 201.354 148.316 201.293 148.64C201.231 148.963 201.445 149.275 201.77 149.337L202.659 149.503C203.013 149.577 203.324 149.659 203.605 149.764C203.463 150.509 203.229 150.864 202.909 151.089L202.825 151.145L202.776 151.181C202.543 151.375 202.49 151.716 202.664 151.972C202.849 152.245 203.222 152.317 203.496 152.133L203.594 152.067C204.094 151.719 204.455 151.218 204.681 150.371C204.99 150.623 205.285 150.943 205.601 151.36C205.8 151.623 206.176 151.676 206.441 151.477C206.705 151.279 206.758 150.906 206.559 150.643C206.011 149.92 205.49 149.422 204.899 149.064C204.93 148.728 204.95 148.356 204.96 147.946Z" fill="#00160A"/>
<path fill-rule="evenodd" clip-rule="evenodd" d="M178.792 147.895L178.698 148.247C178.589 148.643 178.479 148.998 178.367 149.317C178.853 149.806 179.237 150.415 179.593 151.248C179.722 151.551 179.58 151.901 179.275 152.029C178.97 152.158 178.618 152.016 178.489 151.713C178.284 151.233 178.076 150.851 177.837 150.532C177.412 151.3 176.94 151.699 176.369 151.917L176.259 151.957C175.947 152.07 175.603 151.91 175.49 151.601C175.384 151.311 175.518 150.992 175.792 150.861L175.848 150.837L175.943 150.803C176.308 150.662 176.622 150.374 176.941 149.685C176.693 149.516 176.412 149.361 176.087 149.205L175.264 148.829C174.964 148.691 174.832 148.337 174.971 148.038C175.109 147.739 175.466 147.609 175.767 147.746L176.454 148.059C176.79 148.214 177.092 148.371 177.366 148.538C177.452 148.26 177.54 147.948 177.631 147.597C177.714 147.279 178.041 147.087 178.362 147.169C178.682 147.251 178.875 147.576 178.792 147.895Z" fill="#F5E42A"/>
</svg>
