<svg width="218" height="31" viewBox="0 0 218 31" fill="none" xmlns="http://www.w3.org/2000/svg">
<g filter="url(#filter0_d_29_28)">
<mask id="path-1-outside-1_29_28" maskUnits="userSpaceOnUse" x="-1" y="-3" width="222" height="33" fill="black">
<rect fill="white" x="-1" y="-3" width="222" height="33"/>
<path d="M15.44 27H7.384C5.56 25.328 4.23 23.3393 3.394 21.034C2.558 18.7287 2.14 16.322 2.14 13.814C2.14 11.2807 2.64667 8.78533 3.66 6.328C4.67333 3.87067 6.092 1.89467 7.916 0.399998H17.15V4.96H10.082C9.42333 5.72 8.85333 6.92333 8.372 8.57C7.89067 10.1913 7.65 11.9267 7.65 13.776C7.65 15.6 7.86533 17.348 8.296 19.02C8.752 20.6667 9.30933 21.8573 9.968 22.592H13.616V12.256H18.632V18.64C18.632 22.136 17.568 24.9227 15.44 27ZM32.9633 27H24.6793C22.146 24.644 20.8793 21.4267 20.8793 17.348C20.8793 15.296 21.158 13.51 21.7153 11.99C22.298 10.47 23.21 9.00067 24.4513 7.582H33.3433C34.6607 9.102 35.56 10.584 36.0413 12.028C36.5227 13.4467 36.7633 15.22 36.7633 17.348C36.7633 21.4267 35.4967 24.644 32.9633 27ZM27.3773 23.01H30.2653C31.1773 21.2367 31.6333 19.2227 31.6333 16.968C31.6333 14.7133 31.1647 12.9147 30.2273 11.572H27.3773C26.4653 12.864 26.0093 14.7007 26.0093 17.082C26.0093 19.438 26.4653 21.414 27.3773 23.01ZM44.4996 0.399998V27H39.4836V0.399998H44.4996ZM62.465 27H58.627L57.943 25.632C57.3857 26.1387 56.8537 26.4933 56.347 26.696C55.8657 26.8987 55.131 27 54.143 27H50.837C49.7223 25.936 48.8357 24.5427 48.177 22.82C47.5437 21.0973 47.227 19.172 47.227 17.044C47.227 14.8907 47.5437 13.0667 48.177 11.572C48.8357 10.0773 49.7603 8.74733 50.951 7.582H54.219C55.5617 7.582 56.6257 7.93667 57.411 8.646V0.399998H62.465V27ZM57.411 11.572H53.763C52.8257 13.168 52.357 15.1313 52.357 17.462C52.357 19.7673 52.813 21.6167 53.725 23.01H57.411V11.572ZM65.9099 27V0.399998H79.7799V4.96H71.1159V11.61H78.6399V16.018H71.1159V27H65.9099ZM81.4552 27V7.582H85.0652L86.0152 9.634C87.0285 8.266 88.3079 7.582 89.8532 7.582H91.3352V12.674H86.5092V27H81.4552ZM104.362 27H96.0778C93.5444 24.644 92.2778 21.4267 92.2778 17.348C92.2778 15.296 92.5564 13.51 93.1138 11.99C93.6964 10.47 94.6084 9.00067 95.8498 7.582H104.742C106.059 9.102 106.958 10.584 107.44 12.028C107.921 13.4467 108.162 15.22 108.162 17.348C108.162 21.4267 106.895 24.644 104.362 27ZM98.7758 23.01H101.664C102.576 21.2367 103.032 19.2227 103.032 16.968C103.032 14.7133 102.563 12.9147 101.626 11.572H98.7758C97.8638 12.864 97.4078 14.7007 97.4078 17.082C97.4078 19.438 97.8638 21.414 98.7758 23.01ZM119.318 7.582H123.346C124.461 9.00067 125.221 10.4193 125.626 11.838C126.031 13.2567 126.234 15.03 126.234 17.158V27H121.18V16.778C121.18 14.3713 120.851 12.636 120.192 11.572H115.936V27H110.882V7.582H114.834L115.518 8.95C116.075 8.44333 116.595 8.08867 117.076 7.886C117.583 7.68333 118.33 7.582 119.318 7.582ZM129.909 18.526V11.572H127.287V7.582H129.909V2.3H134.963V7.582H138.079V11.572H134.963V19.742C134.963 21.2873 135.229 22.3767 135.761 23.01H138.079V27H132.683C131.34 25.7587 130.529 24.416 130.251 22.972C130.023 21.756 129.909 20.274 129.909 18.526ZM146.883 27V0.399998H157.713C158.954 0.855998 160.056 1.654 161.019 2.794C161.981 3.934 162.463 5.31467 162.463 6.936C162.463 9.79867 161.525 11.8 159.651 12.94V13.092C161.981 14.384 163.147 16.4107 163.147 19.172C163.147 22.3387 161.538 24.948 158.321 27H146.883ZM152.051 11.382H155.813C156.927 10.698 157.485 9.65933 157.485 8.266C157.485 6.87267 156.965 5.77067 155.927 4.96H152.051V11.382ZM152.051 22.592H155.965C156.421 22.2627 156.826 21.7433 157.181 21.034C157.561 20.3247 157.751 19.6153 157.751 18.906C157.751 18.1967 157.599 17.5507 157.295 16.968C156.991 16.3853 156.611 15.9547 156.155 15.676H152.051V22.592ZM174.888 18.222H170.822C170.29 18.8807 170.024 19.704 170.024 20.692C170.024 21.68 170.302 22.4527 170.86 23.01H174.888V18.222ZM166.718 7.582H176.142C177.662 8.494 178.662 9.54533 179.144 10.736C179.625 11.9013 179.866 13.4973 179.866 15.524V21.224C179.866 23.3267 179.916 25.252 180.018 27H175.686L175.002 25.632C174.014 26.544 172.62 27 170.822 27H168.428C166.274 25.5813 165.198 23.542 165.198 20.882C165.198 18.1967 166.3 16.0813 168.504 14.536H172.076C173.064 14.536 173.988 14.84 174.85 15.448V13.548C174.85 12.56 174.419 11.9013 173.558 11.572H166.718V7.582ZM191.57 7.582H195.598C196.713 9.00067 197.473 10.4193 197.878 11.838C198.283 13.2567 198.486 15.03 198.486 17.158V27H193.432V16.778C193.432 14.3713 193.103 12.636 192.444 11.572H188.188V27H183.134V7.582H187.086L187.77 8.95C188.327 8.44333 188.847 8.08867 189.328 7.886C189.835 7.68333 190.582 7.582 191.57 7.582ZM201.614 27V0.399998H206.668V14.498H207.2L210.772 7.582H215.712L211.228 16.056L215.75 27H210.734L207.238 18.488H206.668V27H201.614Z"/>
</mask>
<path d="M15.44 27H7.384C5.56 25.328 4.23 23.3393 3.394 21.034C2.558 18.7287 2.14 16.322 2.14 13.814C2.14 11.2807 2.64667 8.78533 3.66 6.328C4.67333 3.87067 6.092 1.89467 7.916 0.399998H17.15V4.96H10.082C9.42333 5.72 8.85333 6.92333 8.372 8.57C7.89067 10.1913 7.65 11.9267 7.65 13.776C7.65 15.6 7.86533 17.348 8.296 19.02C8.752 20.6667 9.30933 21.8573 9.968 22.592H13.616V12.256H18.632V18.64C18.632 22.136 17.568 24.9227 15.44 27ZM32.9633 27H24.6793C22.146 24.644 20.8793 21.4267 20.8793 17.348C20.8793 15.296 21.158 13.51 21.7153 11.99C22.298 10.47 23.21 9.00067 24.4513 7.582H33.3433C34.6607 9.102 35.56 10.584 36.0413 12.028C36.5227 13.4467 36.7633 15.22 36.7633 17.348C36.7633 21.4267 35.4967 24.644 32.9633 27ZM27.3773 23.01H30.2653C31.1773 21.2367 31.6333 19.2227 31.6333 16.968C31.6333 14.7133 31.1647 12.9147 30.2273 11.572H27.3773C26.4653 12.864 26.0093 14.7007 26.0093 17.082C26.0093 19.438 26.4653 21.414 27.3773 23.01ZM44.4996 0.399998V27H39.4836V0.399998H44.4996ZM62.465 27H58.627L57.943 25.632C57.3857 26.1387 56.8537 26.4933 56.347 26.696C55.8657 26.8987 55.131 27 54.143 27H50.837C49.7223 25.936 48.8357 24.5427 48.177 22.82C47.5437 21.0973 47.227 19.172 47.227 17.044C47.227 14.8907 47.5437 13.0667 48.177 11.572C48.8357 10.0773 49.7603 8.74733 50.951 7.582H54.219C55.5617 7.582 56.6257 7.93667 57.411 8.646V0.399998H62.465V27ZM57.411 11.572H53.763C52.8257 13.168 52.357 15.1313 52.357 17.462C52.357 19.7673 52.813 21.6167 53.725 23.01H57.411V11.572ZM65.9099 27V0.399998H79.7799V4.96H71.1159V11.61H78.6399V16.018H71.1159V27H65.9099ZM81.4552 27V7.582H85.0652L86.0152 9.634C87.0285 8.266 88.3079 7.582 89.8532 7.582H91.3352V12.674H86.5092V27H81.4552ZM104.362 27H96.0778C93.5444 24.644 92.2778 21.4267 92.2778 17.348C92.2778 15.296 92.5564 13.51 93.1138 11.99C93.6964 10.47 94.6084 9.00067 95.8498 7.582H104.742C106.059 9.102 106.958 10.584 107.44 12.028C107.921 13.4467 108.162 15.22 108.162 17.348C108.162 21.4267 106.895 24.644 104.362 27ZM98.7758 23.01H101.664C102.576 21.2367 103.032 19.2227 103.032 16.968C103.032 14.7133 102.563 12.9147 101.626 11.572H98.7758C97.8638 12.864 97.4078 14.7007 97.4078 17.082C97.4078 19.438 97.8638 21.414 98.7758 23.01ZM119.318 7.582H123.346C124.461 9.00067 125.221 10.4193 125.626 11.838C126.031 13.2567 126.234 15.03 126.234 17.158V27H121.18V16.778C121.18 14.3713 120.851 12.636 120.192 11.572H115.936V27H110.882V7.582H114.834L115.518 8.95C116.075 8.44333 116.595 8.08867 117.076 7.886C117.583 7.68333 118.33 7.582 119.318 7.582ZM129.909 18.526V11.572H127.287V7.582H129.909V2.3H134.963V7.582H138.079V11.572H134.963V19.742C134.963 21.2873 135.229 22.3767 135.761 23.01H138.079V27H132.683C131.34 25.7587 130.529 24.416 130.251 22.972C130.023 21.756 129.909 20.274 129.909 18.526ZM146.883 27V0.399998H157.713C158.954 0.855998 160.056 1.654 161.019 2.794C161.981 3.934 162.463 5.31467 162.463 6.936C162.463 9.79867 161.525 11.8 159.651 12.94V13.092C161.981 14.384 163.147 16.4107 163.147 19.172C163.147 22.3387 161.538 24.948 158.321 27H146.883ZM152.051 11.382H155.813C156.927 10.698 157.485 9.65933 157.485 8.266C157.485 6.87267 156.965 5.77067 155.927 4.96H152.051V11.382ZM152.051 22.592H155.965C156.421 22.2627 156.826 21.7433 157.181 21.034C157.561 20.3247 157.751 19.6153 157.751 18.906C157.751 18.1967 157.599 17.5507 157.295 16.968C156.991 16.3853 156.611 15.9547 156.155 15.676H152.051V22.592ZM174.888 18.222H170.822C170.29 18.8807 170.024 19.704 170.024 20.692C170.024 21.68 170.302 22.4527 170.86 23.01H174.888V18.222ZM166.718 7.582H176.142C177.662 8.494 178.662 9.54533 179.144 10.736C179.625 11.9013 179.866 13.4973 179.866 15.524V21.224C179.866 23.3267 179.916 25.252 180.018 27H175.686L175.002 25.632C174.014 26.544 172.62 27 170.822 27H168.428C166.274 25.5813 165.198 23.542 165.198 20.882C165.198 18.1967 166.3 16.0813 168.504 14.536H172.076C173.064 14.536 173.988 14.84 174.85 15.448V13.548C174.85 12.56 174.419 11.9013 173.558 11.572H166.718V7.582ZM191.57 7.582H195.598C196.713 9.00067 197.473 10.4193 197.878 11.838C198.283 13.2567 198.486 15.03 198.486 17.158V27H193.432V16.778C193.432 14.3713 193.103 12.636 192.444 11.572H188.188V27H183.134V7.582H187.086L187.77 8.95C188.327 8.44333 188.847 8.08867 189.328 7.886C189.835 7.68333 190.582 7.582 191.57 7.582ZM201.614 27V0.399998H206.668V14.498H207.2L210.772 7.582H215.712L211.228 16.056L215.75 27H210.734L207.238 18.488H206.668V27H201.614Z" fill="white"/>
<path d="M15.44 27V30H16.6615L17.5356 29.1467L15.44 27ZM7.384 27L5.35683 29.2115L6.21705 30H7.384V27ZM3.66 6.328L0.886558 5.18431H0.886558L3.66 6.328ZM7.916 0.399998V-2.6H6.84383L6.01453 -1.92044L7.916 0.399998ZM17.15 0.399998H20.15V-2.6H17.15V0.399998ZM17.15 4.96V7.96H20.15V4.96H17.15ZM10.082 4.96V1.96H8.71211L7.81493 2.99521L10.082 4.96ZM8.372 8.57L11.248 9.4238L11.2515 9.4117L8.372 8.57ZM8.296 19.02L5.39082 19.7683L5.39758 19.7945L5.40481 19.8206L8.296 19.02ZM9.968 22.592L7.73429 24.5946L8.62848 25.592H9.968V22.592ZM13.616 22.592V25.592H16.616V22.592H13.616ZM13.616 12.256V9.256H10.616V12.256H13.616ZM18.632 12.256H21.632V9.256H18.632V12.256ZM15.44 24H7.384V30H15.44V24ZM9.41117 24.7885C7.94008 23.44 6.88398 21.858 6.21428 20.0113L0.573716 22.0567C1.57602 24.8207 3.17992 27.216 5.35683 29.2115L9.41117 24.7885ZM6.21428 20.0113C5.4999 18.0413 5.14 15.9813 5.14 13.814H-0.86C-0.86 16.6627 -0.383904 19.416 0.573716 22.0567L6.21428 20.0113ZM5.14 13.814C5.14 11.6922 5.56221 9.58443 6.43344 7.47169L0.886558 5.18431C-0.268873 7.98623 -0.86 10.8691 -0.86 13.814H5.14ZM6.43344 7.47169C7.28217 5.41352 8.42345 3.86275 9.81747 2.72043L6.01453 -1.92044C3.76055 -0.0734215 2.0645 2.32781 0.886558 5.18431L6.43344 7.47169ZM7.916 3.4H17.15V-2.6H7.916V3.4ZM14.15 0.399998V4.96H20.15V0.399998H14.15ZM17.15 1.96H10.082V7.96H17.15V1.96ZM7.81493 2.99521C6.74122 4.23411 6.02107 5.92003 5.4925 7.7283L11.2515 9.4117C11.6856 7.92663 12.1054 7.20589 12.3491 6.92479L7.81493 2.99521ZM5.49606 7.7162C4.92516 9.63925 4.65 11.6644 4.65 13.776H10.65C10.65 12.189 10.8562 10.7434 11.2479 9.42379L5.49606 7.7162ZM4.65 13.776C4.65 15.8382 4.89374 17.8385 5.39082 19.7683L11.2012 18.2717C10.8369 16.8575 10.65 15.3618 10.65 13.776H4.65ZM5.40481 19.8206C5.90638 21.6319 6.61773 23.3492 7.73429 24.5946L12.2017 20.5894C12.0009 20.3654 11.5976 19.7015 11.1872 18.2194L5.40481 19.8206ZM9.968 25.592H13.616V19.592H9.968V25.592ZM16.616 22.592V12.256H10.616V22.592H16.616ZM13.616 15.256H18.632V9.256H13.616V15.256ZM15.632 12.256V18.64H21.632V12.256H15.632ZM15.632 18.64C15.632 21.4813 14.7928 23.4394 13.3444 24.8533L17.5356 29.1467C20.3432 26.406 21.632 22.7907 21.632 18.64H15.632ZM32.9633 27V30H34.1427L35.0064 29.1968L32.9633 27ZM24.6793 27L22.6363 29.1968L23.4999 30H24.6793V27ZM21.7153 11.99L18.9141 10.9162L18.9063 10.9367L18.8987 10.9572L21.7153 11.99ZM24.4513 7.582V4.582H23.09L22.1936 5.60649L24.4513 7.582ZM33.3433 7.582L35.6104 5.61721L34.7132 4.582H33.3433V7.582ZM36.0413 12.028L33.1953 12.9767L33.1978 12.9843L33.2004 12.9919L36.0413 12.028ZM27.3773 23.01L24.7726 24.4984L25.6364 26.01H27.3773V23.01ZM30.2653 23.01V26.01H32.096L32.9332 24.382L30.2653 23.01ZM30.2273 11.572L32.6872 9.85473L31.7917 8.572H30.2273V11.572ZM27.3773 11.572V8.572H25.8229L24.9264 9.84195L27.3773 11.572ZM32.9633 24H24.6793V30H32.9633V24ZM26.7224 24.8032C24.9089 23.1166 23.8793 20.7557 23.8793 17.348H17.8793C17.8793 22.0977 19.3832 26.1714 22.6363 29.1968L26.7224 24.8032ZM23.8793 17.348C23.8793 15.5583 24.1235 14.1368 24.532 13.0228L18.8987 10.9572C18.1925 12.8832 17.8793 15.0337 17.8793 17.348H23.8793ZM24.5166 13.0638C24.9544 11.9218 25.6645 10.7514 26.7091 9.55751L22.1936 5.60649C20.7556 7.24997 19.6417 9.01824 18.9141 10.9162L24.5166 13.0638ZM24.4513 10.582H33.3433V4.582H24.4513V10.582ZM31.0763 9.54679C32.2144 10.86 32.8714 12.0051 33.1953 12.9767L38.8874 11.0793C38.2486 9.16285 37.107 7.34401 35.6104 5.61721L31.0763 9.54679ZM33.2004 12.9919C33.5423 13.9996 33.7633 15.4216 33.7633 17.348H39.7633C39.7633 15.0184 39.503 12.8937 38.8823 11.0641L33.2004 12.9919ZM33.7633 17.348C33.7633 20.7557 32.7338 23.1166 30.9203 24.8032L35.0064 29.1968C38.2595 26.1714 39.7633 22.0977 39.7633 17.348H33.7633ZM27.3773 26.01H30.2653V20.01H27.3773V26.01ZM32.9332 24.382C34.0906 22.1316 34.6333 19.637 34.6333 16.968H28.6333C28.6333 18.8084 28.2641 20.3417 27.5975 21.638L32.9332 24.382ZM34.6333 16.968C34.6333 14.3245 34.0862 11.8587 32.6872 9.85473L27.7675 13.2893C28.2431 13.9706 28.6333 15.1021 28.6333 16.968H34.6333ZM30.2273 8.572H27.3773V14.572H30.2273V8.572ZM24.9264 9.84195C23.518 11.8372 23.0093 14.3765 23.0093 17.082H29.0093C29.0093 15.0249 29.4127 13.8908 29.8282 13.302L24.9264 9.84195ZM23.0093 17.082C23.0093 19.8161 23.5385 22.3386 24.7726 24.4984L29.9821 21.5216C29.3922 20.4894 29.0093 19.0599 29.0093 17.082H23.0093ZM44.4996 0.399998H47.4996V-2.6H44.4996V0.399998ZM44.4996 27V30H47.4996V27H44.4996ZM39.4836 27H36.4836V30H39.4836V27ZM39.4836 0.399998V-2.6H36.4836V0.399998H39.4836ZM41.4996 0.399998V27H47.4996V0.399998H41.4996ZM44.4996 24H39.4836V30H44.4996V24ZM42.4836 27V0.399998H36.4836V27H42.4836ZM39.4836 3.4H44.4996V-2.6H39.4836V3.4ZM62.465 27V30H65.465V27H62.465ZM58.627 27L55.9437 28.3416L56.7729 30H58.627V27ZM57.943 25.632L60.6263 24.2904L58.8553 20.7483L55.925 23.4122L57.943 25.632ZM56.347 26.696L55.2328 23.9106L55.2077 23.9206L55.1828 23.9311L56.347 26.696ZM50.837 27L48.7656 29.1701L49.635 30H50.837V27ZM48.177 22.82L45.3613 23.8552L45.3679 23.8733L45.3748 23.8914L48.177 22.82ZM48.177 11.572L45.4317 10.3622L45.4231 10.3818L45.4147 10.4016L48.177 11.572ZM50.951 7.582V4.582H49.7272L48.8526 5.43799L50.951 7.582ZM57.411 8.646L55.4001 10.8723L60.411 15.3982V8.646H57.411ZM57.411 0.399998V-2.6H54.411V0.399998H57.411ZM62.465 0.399998H65.465V-2.6H62.465V0.399998ZM57.411 11.572H60.411V8.572H57.411V11.572ZM53.763 11.572V8.572H52.0458L51.1761 10.0527L53.763 11.572ZM53.725 23.01L51.2149 24.653L52.1031 26.01H53.725V23.01ZM57.411 23.01V26.01H60.411V23.01H57.411ZM62.465 24H58.627V30H62.465V24ZM61.3103 25.6584L60.6263 24.2904L55.2597 26.9736L55.9437 28.3416L61.3103 25.6584ZM55.925 23.4122C55.5391 23.763 55.3067 23.881 55.2328 23.9106L57.4612 29.4814C58.4006 29.1057 59.2323 28.5143 59.961 27.8518L55.925 23.4122ZM55.1828 23.9311C55.2609 23.8982 55.2321 23.9236 55.0251 23.9521C54.8297 23.9791 54.5419 24 54.143 24V30C55.2381 30 56.4636 29.902 57.5112 29.4609L55.1828 23.9311ZM54.143 24H50.837V30H54.143V24ZM52.9084 24.8299C52.1731 24.128 51.5097 23.1362 50.9792 21.7486L45.3748 23.8914C46.1616 25.9492 47.2716 27.744 48.7656 29.1701L52.9084 24.8299ZM50.9927 21.7848C50.499 20.4419 50.227 18.8741 50.227 17.044H44.227C44.227 19.4699 44.5883 21.7527 45.3613 23.8552L50.9927 21.7848ZM50.227 17.044C50.227 15.1683 50.505 13.7673 50.9393 12.7424L45.4147 10.4016C44.5823 12.3661 44.227 14.613 44.227 17.044H50.227ZM50.9223 12.7818C51.4237 11.644 52.1263 10.6294 53.0494 9.72601L48.8526 5.43799C47.3944 6.86521 46.2477 8.5107 45.4317 10.3622L50.9223 12.7818ZM50.951 10.582H54.219V4.582H50.951V10.582ZM54.219 10.582C55.0254 10.582 55.3024 10.784 55.4001 10.8723L59.4219 6.41969C57.9489 5.0893 56.0979 4.582 54.219 4.582V10.582ZM60.411 8.646V0.399998H54.411V8.646H60.411ZM57.411 3.4H62.465V-2.6H57.411V3.4ZM59.465 0.399998V27H65.465V0.399998H59.465ZM57.411 8.572H53.763V14.572H57.411V8.572ZM51.1761 10.0527C49.9066 12.2144 49.357 14.7338 49.357 17.462H55.357C55.357 15.5288 55.7448 14.1216 56.3499 13.0913L51.1761 10.0527ZM49.357 17.462C49.357 20.1344 49.8823 22.6171 51.2149 24.653L56.2351 21.367C55.7437 20.6162 55.357 19.4002 55.357 17.462H49.357ZM53.725 26.01H57.411V20.01H53.725V26.01ZM60.411 23.01V11.572H54.411V23.01H60.411ZM65.9099 27H62.9099V30H65.9099V27ZM65.9099 0.399998V-2.6H62.9099V0.399998H65.9099ZM79.7799 0.399998H82.7799V-2.6H79.7799V0.399998ZM79.7799 4.96V7.96H82.7799V4.96H79.7799ZM71.1159 4.96V1.96H68.1159V4.96H71.1159ZM71.1159 11.61H68.1159V14.61H71.1159V11.61ZM78.6399 11.61H81.6399V8.61H78.6399V11.61ZM78.6399 16.018V19.018H81.6399V16.018H78.6399ZM71.1159 16.018V13.018H68.1159V16.018H71.1159ZM71.1159 27V30H74.1159V27H71.1159ZM68.9099 27V0.399998H62.9099V27H68.9099ZM65.9099 3.4H79.7799V-2.6H65.9099V3.4ZM76.7799 0.399998V4.96H82.7799V0.399998H76.7799ZM79.7799 1.96H71.1159V7.96H79.7799V1.96ZM68.1159 4.96V11.61H74.1159V4.96H68.1159ZM71.1159 14.61H78.6399V8.61H71.1159V14.61ZM75.6399 11.61V16.018H81.6399V11.61H75.6399ZM78.6399 13.018H71.1159V19.018H78.6399V13.018ZM68.1159 16.018V27H74.1159V16.018H68.1159ZM71.1159 24H65.9099V30H71.1159V24ZM81.4552 27H78.4552V30H81.4552V27ZM81.4552 7.582V4.582H78.4552V7.582H81.4552ZM85.0652 7.582L87.7876 6.32163L86.9822 4.582H85.0652V7.582ZM86.0152 9.634L83.2928 10.8944L85.4167 15.482L88.4259 11.4197L86.0152 9.634ZM91.3352 7.582H94.3352V4.582H91.3352V7.582ZM91.3352 12.674V15.674H94.3352V12.674H91.3352ZM86.5092 12.674V9.674H83.5092V12.674H86.5092ZM86.5092 27V30H89.5092V27H86.5092ZM84.4552 27V7.582H78.4552V27H84.4552ZM81.4552 10.582H85.0652V4.582H81.4552V10.582ZM82.3428 8.84237L83.2928 10.8944L88.7376 8.37363L87.7876 6.32163L82.3428 8.84237ZM88.4259 11.4197C88.9399 10.7257 89.3649 10.582 89.8532 10.582V4.582C87.2509 4.582 85.1172 5.80627 83.6045 7.84832L88.4259 11.4197ZM89.8532 10.582H91.3352V4.582H89.8532V10.582ZM88.3352 7.582V12.674H94.3352V7.582H88.3352ZM91.3352 9.674H86.5092V15.674H91.3352V9.674ZM83.5092 12.674V27H89.5092V12.674H83.5092ZM86.5092 24H81.4552V30H86.5092V24ZM104.362 27V30H105.541L106.405 29.1968L104.362 27ZM96.0778 27L94.0347 29.1968L94.8984 30H96.0778V27ZM93.1138 11.99L90.3125 10.9162L90.3047 10.9367L90.2971 10.9572L93.1138 11.99ZM95.8498 7.582V4.582H94.4885L93.592 5.60649L95.8498 7.582ZM104.742 7.582L107.009 5.61721L106.112 4.582H104.742V7.582ZM107.44 12.028L104.594 12.9767L104.596 12.9843L104.599 12.9919L107.44 12.028ZM98.7758 23.01L96.1711 24.4984L97.0348 26.01H98.7758V23.01ZM101.664 23.01V26.01H103.494L104.332 24.382L101.664 23.01ZM101.626 11.572L104.086 9.85473L103.19 8.572H101.626V11.572ZM98.7758 11.572V8.572H97.2213L96.3249 9.84195L98.7758 11.572ZM104.362 24H96.0778V30H104.362V24ZM98.1208 24.8032C96.3073 23.1166 95.2778 20.7557 95.2778 17.348H89.2778C89.2778 22.0977 90.7816 26.1714 94.0347 29.1968L98.1208 24.8032ZM95.2778 17.348C95.2778 15.5583 95.5219 14.1368 95.9304 13.0228L90.2971 10.9572C89.591 12.8832 89.2778 15.0337 89.2778 17.348H95.2778ZM95.915 13.0638C96.3528 11.9218 97.0629 10.7514 98.1075 9.55751L93.592 5.60649C92.154 7.24997 91.0401 9.01824 90.3125 10.9162L95.915 13.0638ZM95.8498 10.582H104.742V4.582H95.8498V10.582ZM102.475 9.54679C103.613 10.86 104.27 12.0051 104.594 12.9767L110.286 11.0793C109.647 9.16285 108.505 7.34401 107.009 5.61721L102.475 9.54679ZM104.599 12.9919C104.941 13.9996 105.162 15.4216 105.162 17.348H111.162C111.162 15.0184 110.901 12.8937 110.281 11.0641L104.599 12.9919ZM105.162 17.348C105.162 20.7557 104.132 23.1166 102.319 24.8032L106.405 29.1968C109.658 26.1714 111.162 22.0977 111.162 17.348H105.162ZM98.7758 26.01H101.664V20.01H98.7758V26.01ZM104.332 24.382C105.489 22.1316 106.032 19.637 106.032 16.968H100.032C100.032 18.8084 99.6626 20.3417 98.9959 21.638L104.332 24.382ZM106.032 16.968C106.032 14.3245 105.485 11.8587 104.086 9.85473L99.1659 13.2893C99.6416 13.9706 100.032 15.1021 100.032 16.968H106.032ZM101.626 8.572H98.7758V14.572H101.626V8.572ZM96.3249 9.84195C94.9165 11.8372 94.4078 14.3765 94.4078 17.082H100.408C100.408 15.0249 100.811 13.8908 101.227 13.302L96.3249 9.84195ZM94.4078 17.082C94.4078 19.8161 94.9369 22.3386 96.1711 24.4984L101.381 21.5216C100.791 20.4894 100.408 19.0599 100.408 17.082H94.4078ZM123.346 7.582L125.705 5.72853L124.804 4.582H123.346V7.582ZM126.234 27V30H129.234V27H126.234ZM121.18 27H118.18V30H121.18V27ZM120.192 11.572L122.743 9.99294L121.863 8.572H120.192V11.572ZM115.936 11.572V8.572H112.936V11.572H115.936ZM115.936 27V30H118.936V27H115.936ZM110.882 27H107.882V30H110.882V27ZM110.882 7.582V4.582H107.882V7.582H110.882ZM114.834 7.582L117.517 6.24036L116.688 4.582H114.834V7.582ZM115.518 8.95L112.835 10.2916L114.606 13.8337L117.536 11.1698L115.518 8.95ZM117.076 7.886L115.962 5.10057L115.937 5.11061L115.912 5.12109L117.076 7.886ZM119.318 10.582H123.346V4.582H119.318V10.582ZM120.987 9.43546C121.914 10.6146 122.464 11.6907 122.741 12.6622L128.511 11.0138C127.978 9.148 127.008 7.38677 125.705 5.72853L120.987 9.43546ZM122.741 12.6622C123.045 13.7232 123.234 15.1971 123.234 17.158H129.234C129.234 14.8629 129.018 12.7901 128.511 11.0138L122.741 12.6622ZM123.234 17.158V27H129.234V17.158H123.234ZM126.234 24H121.18V30H126.234V24ZM124.18 27V16.778H118.18V27H124.18ZM124.18 16.778C124.18 14.2442 123.86 11.7978 122.743 9.99294L117.641 13.1511C117.841 13.4742 118.18 14.4984 118.18 16.778H124.18ZM120.192 8.572H115.936V14.572H120.192V8.572ZM112.936 11.572V27H118.936V11.572H112.936ZM115.936 24H110.882V30H115.936V24ZM113.882 27V7.582H107.882V27H113.882ZM110.882 10.582H114.834V4.582H110.882V10.582ZM112.151 8.92364L112.835 10.2916L118.201 7.60836L117.517 6.24036L112.151 8.92364ZM117.536 11.1698C117.943 10.7996 118.178 10.6772 118.24 10.6509L115.912 5.12109C115.012 5.50014 114.208 6.08702 113.5 6.73018L117.536 11.1698ZM118.19 10.6714C118.147 10.6887 118.204 10.66 118.42 10.6308C118.626 10.6028 118.92 10.582 119.318 10.582V4.582C118.207 4.582 117.002 4.68435 115.962 5.10057L118.19 10.6714ZM129.909 11.572H132.909V8.572H129.909V11.572ZM127.287 11.572H124.287V14.572H127.287V11.572ZM127.287 7.582V4.582H124.287V7.582H127.287ZM129.909 7.582V10.582H132.909V7.582H129.909ZM129.909 2.3V-0.700002H126.909V2.3H129.909ZM134.963 2.3H137.963V-0.700002H134.963V2.3ZM134.963 7.582H131.963V10.582H134.963V7.582ZM138.079 7.582H141.079V4.582H138.079V7.582ZM138.079 11.572V14.572H141.079V11.572H138.079ZM134.963 11.572V8.572H131.963V11.572H134.963ZM135.761 23.01L133.464 24.9396L134.363 26.01H135.761V23.01ZM138.079 23.01H141.079V20.01H138.079V23.01ZM138.079 27V30H141.079V27H138.079ZM132.683 27L130.646 29.2028L131.508 30H132.683V27ZM130.251 22.972L127.302 23.5249L127.304 23.5327L127.305 23.5405L130.251 22.972ZM132.909 18.526V11.572H126.909V18.526H132.909ZM129.909 8.572H127.287V14.572H129.909V8.572ZM130.287 11.572V7.582H124.287V11.572H130.287ZM127.287 10.582H129.909V4.582H127.287V10.582ZM132.909 7.582V2.3H126.909V7.582H132.909ZM129.909 5.3H134.963V-0.700002H129.909V5.3ZM131.963 2.3V7.582H137.963V2.3H131.963ZM134.963 10.582H138.079V4.582H134.963V10.582ZM135.079 7.582V11.572H141.079V7.582H135.079ZM138.079 8.572H134.963V14.572H138.079V8.572ZM131.963 11.572V19.742H137.963V11.572H131.963ZM131.963 19.742C131.963 21.4561 132.223 23.4624 133.464 24.9396L138.058 21.0804C138.175 21.2194 138.137 21.2543 138.077 21.0064C138.017 20.7635 137.963 20.3581 137.963 19.742H131.963ZM135.761 26.01H138.079V20.01H135.761V26.01ZM135.079 23.01V27H141.079V23.01H135.079ZM138.079 24H132.683V30H138.079V24ZM134.719 24.7972C133.73 23.8827 133.327 23.0808 133.196 22.4035L127.305 23.5405C127.732 25.7512 128.95 27.6346 130.646 29.2028L134.719 24.7972ZM133.199 22.4191C133.016 21.4429 132.909 20.1579 132.909 18.526H126.909C126.909 20.3901 127.029 22.0691 127.302 23.5249L133.199 22.4191ZM146.883 27H143.883V30H146.883V27ZM146.883 0.399998V-2.6H143.883V0.399998H146.883ZM157.713 0.399998L158.747 -2.41601L158.246 -2.6H157.713V0.399998ZM161.019 2.794L158.727 4.72954V4.72954L161.019 2.794ZM159.651 12.94L158.092 10.3767L156.651 11.2532V12.94H159.651ZM159.651 13.092H156.651V14.8591L158.196 15.7158L159.651 13.092ZM158.321 27V30H159.196L159.934 29.5293L158.321 27ZM152.051 11.382H149.051V14.382H152.051V11.382ZM155.813 11.382V14.382H156.66L157.382 13.939L155.813 11.382ZM155.927 4.96L157.772 2.59505L156.959 1.96H155.927V4.96ZM152.051 4.96V1.96H149.051V4.96H152.051ZM152.051 22.592H149.051V25.592H152.051V22.592ZM155.965 22.592V25.592H156.935L157.721 25.024L155.965 22.592ZM157.181 21.034L154.536 19.6173L154.516 19.6546L154.497 19.6924L157.181 21.034ZM157.295 16.968L159.954 15.5803V15.5803L157.295 16.968ZM156.155 15.676L157.719 13.1162L156.999 12.676H156.155V15.676ZM152.051 15.676V12.676H149.051V15.676H152.051ZM149.883 27V0.399998H143.883V27H149.883ZM146.883 3.4H157.713V-2.6H146.883V3.4ZM156.678 3.21601C157.371 3.47049 158.056 3.93519 158.727 4.72954L163.311 0.858458C162.056 -0.627194 160.537 -1.75849 158.747 -2.41601L156.678 3.21601ZM158.727 4.72954C159.191 5.27983 159.463 5.9572 159.463 6.936H165.463C165.463 4.67213 164.771 2.58817 163.311 0.858457L158.727 4.72954ZM159.463 6.936C159.463 9.1139 158.8 9.94606 158.092 10.3767L161.209 15.5033C164.25 13.6539 165.463 10.4834 165.463 6.936H159.463ZM156.651 12.94V13.092H162.651V12.94H156.651ZM158.196 15.7158C158.952 16.1348 159.398 16.5999 159.672 17.0764C159.949 17.5585 160.147 18.2205 160.147 19.172H166.147C166.147 17.3621 165.761 15.6302 164.873 14.0856C163.982 12.5355 162.68 11.3412 161.105 10.4682L158.196 15.7158ZM160.147 19.172C160.147 21.0926 159.266 22.8389 156.707 24.4707L159.934 29.5293C163.81 27.0571 166.147 23.5848 166.147 19.172H160.147ZM158.321 24H146.883V30H158.321V24ZM152.051 14.382H155.813V8.382H152.051V14.382ZM157.382 13.939C159.454 12.6676 160.485 10.62 160.485 8.266H154.485C154.485 8.55775 154.429 8.66139 154.423 8.67155C154.422 8.67309 154.399 8.72958 154.244 8.82503L157.382 13.939ZM160.485 8.266C160.485 6.01022 159.587 4.01105 157.772 2.59505L154.081 7.32495C154.344 7.53028 154.485 7.73512 154.485 8.266H160.485ZM155.927 1.96H152.051V7.96H155.927V1.96ZM149.051 4.96V11.382H155.051V4.96H149.051ZM152.051 25.592H155.965V19.592H152.051V25.592ZM157.721 25.024C158.697 24.3192 159.376 23.351 159.864 22.3756L154.497 19.6924C154.392 19.9036 154.304 20.035 154.246 20.1097C154.188 20.1833 154.171 20.1865 154.208 20.16L157.721 25.024ZM159.825 22.4507C160.407 21.3649 160.751 20.1728 160.751 18.906H154.751C154.751 19.0579 154.714 19.2844 154.536 19.6173L159.825 22.4507ZM160.751 18.906C160.751 17.7527 160.499 16.6249 159.954 15.5803L154.635 18.3557C154.698 18.4765 154.751 18.6406 154.751 18.906H160.751ZM159.954 15.5803C159.456 14.6253 158.736 13.7375 157.719 13.1162L154.59 18.2358C154.544 18.2076 154.526 18.1856 154.532 18.1929C154.541 18.2026 154.579 18.249 154.635 18.3557L159.954 15.5803ZM156.155 12.676H152.051V18.676H156.155V12.676ZM149.051 15.676V22.592H155.051V15.676H149.051ZM174.888 18.222H177.888V15.222H174.888V18.222ZM170.822 18.222V15.222H169.388L168.488 16.337L170.822 18.222ZM170.86 23.01L168.738 25.1313L169.617 26.01H170.86V23.01ZM174.888 23.01V26.01H177.888V23.01H174.888ZM166.718 7.582V4.582H163.718V7.582H166.718ZM176.142 7.582L177.685 5.00952L176.973 4.582H176.142V7.582ZM179.144 10.736L176.362 11.8604L176.367 11.8708L176.371 11.8813L179.144 10.736ZM180.018 27V30H183.197L183.013 26.8264L180.018 27ZM175.686 27L173.002 28.3416L173.832 30H175.686V27ZM175.002 25.632L177.685 24.2904L175.9 20.7202L172.967 23.4276L175.002 25.632ZM168.428 27L166.777 29.5052L167.528 30H168.428V27ZM168.504 14.536V11.536H167.557L166.781 12.0796L168.504 14.536ZM174.85 15.448L173.12 17.8989L177.85 21.2378V15.448H174.85ZM173.558 11.572L174.629 8.76984L174.112 8.572H173.558V11.572ZM166.718 11.572H163.718V14.572H166.718V11.572ZM174.888 15.222H170.822V21.222H174.888V15.222ZM168.488 16.337C167.455 17.6157 167.024 19.1379 167.024 20.692H173.024C173.024 20.2701 173.124 20.1456 173.156 20.107L168.488 16.337ZM167.024 20.692C167.024 22.2628 167.484 23.8769 168.738 25.1313L172.981 20.8887C173 20.9075 173.018 20.9307 173.034 20.9551C173.041 20.9666 173.046 20.9765 173.05 20.9839C173.054 20.9913 173.055 20.9952 173.055 20.9947C173.054 20.9934 173.024 20.9074 173.024 20.692H167.024ZM170.86 26.01H174.888V20.01H170.86V26.01ZM177.888 23.01V18.222H171.888V23.01H177.888ZM166.718 10.582H176.142V4.582H166.718V10.582ZM174.598 10.1545C175.768 10.8563 176.203 11.4663 176.362 11.8604L181.925 9.61163C181.122 7.62438 179.556 6.13174 177.685 5.00952L174.598 10.1545ZM176.371 11.8813C176.639 12.5297 176.866 13.6801 176.866 15.524H182.866C182.866 13.3146 182.611 11.273 181.916 9.59072L176.371 11.8813ZM176.866 15.524V21.224H182.866V15.524H176.866ZM176.866 21.224C176.866 23.3735 176.917 25.3577 177.023 27.1736L183.013 26.8264C182.915 25.1463 182.866 23.2798 182.866 21.224H176.866ZM180.018 24H175.686V30H180.018V24ZM178.369 25.6584L177.685 24.2904L172.318 26.9736L173.002 28.3416L178.369 25.6584ZM172.967 23.4276C172.698 23.6756 172.126 24 170.822 24V30C173.115 30 175.329 29.4124 177.037 27.8364L172.967 23.4276ZM170.822 24H168.428V30H170.822V24ZM170.078 24.4948C168.799 23.6519 168.198 22.5714 168.198 20.882H162.198C162.198 24.5126 163.75 27.5107 166.777 29.5052L170.078 24.4948ZM168.198 20.882C168.198 19.1776 168.821 17.9778 170.226 16.9924L166.781 12.0796C163.779 14.1849 162.198 17.2157 162.198 20.882H168.198ZM168.504 17.536H172.076V11.536H168.504V17.536ZM172.076 17.536C172.402 17.536 172.729 17.6228 173.12 17.8989L176.58 12.9971C175.248 12.0572 173.726 11.536 172.076 11.536V17.536ZM177.85 15.448V13.548H171.85V15.448H177.85ZM177.85 13.548C177.85 12.6196 177.645 11.5998 177.038 10.6713C176.42 9.72664 175.545 9.12013 174.629 8.76984L172.486 14.3742C172.431 14.3532 172.203 14.2407 172.016 13.9547C171.839 13.6849 171.85 13.4884 171.85 13.548H177.85ZM173.558 8.572H166.718V14.572H173.558V8.572ZM169.718 11.572V7.582H163.718V11.572H169.718ZM195.598 7.582L197.957 5.72853L197.056 4.582H195.598V7.582ZM198.486 27V30H201.486V27H198.486ZM193.432 27H190.432V30H193.432V27ZM192.444 11.572L194.995 9.99294L194.115 8.572H192.444V11.572ZM188.188 11.572V8.572H185.188V11.572H188.188ZM188.188 27V30H191.188V27H188.188ZM183.134 27H180.134V30H183.134V27ZM183.134 7.582V4.582H180.134V7.582H183.134ZM187.086 7.582L189.769 6.24036L188.94 4.582H187.086V7.582ZM187.77 8.95L185.087 10.2916L186.858 13.8337L189.788 11.1698L187.77 8.95ZM189.328 7.886L188.214 5.10057L188.189 5.11061L188.164 5.12109L189.328 7.886ZM191.57 10.582H195.598V4.582H191.57V10.582ZM193.239 9.43546C194.165 10.6146 194.716 11.6907 194.993 12.6622L200.763 11.0138C200.229 9.148 199.26 7.38677 197.957 5.72853L193.239 9.43546ZM194.993 12.6622C195.297 13.7232 195.486 15.1971 195.486 17.158H201.486C201.486 14.8629 201.27 12.7901 200.763 11.0138L194.993 12.6622ZM195.486 17.158V27H201.486V17.158H195.486ZM198.486 24H193.432V30H198.486V24ZM196.432 27V16.778H190.432V27H196.432ZM196.432 16.778C196.432 14.2442 196.112 11.7978 194.995 9.99294L189.893 13.1511C190.093 13.4742 190.432 14.4984 190.432 16.778H196.432ZM192.444 8.572H188.188V14.572H192.444V8.572ZM185.188 11.572V27H191.188V11.572H185.188ZM188.188 24H183.134V30H188.188V24ZM186.134 27V7.582H180.134V27H186.134ZM183.134 10.582H187.086V4.582H183.134V10.582ZM184.403 8.92364L185.087 10.2916L190.453 7.60836L189.769 6.24036L184.403 8.92364ZM189.788 11.1698C190.195 10.7996 190.43 10.6772 190.492 10.6509L188.164 5.12109C187.264 5.50014 186.459 6.08702 185.752 6.73018L189.788 11.1698ZM190.442 10.6714C190.399 10.6887 190.456 10.66 190.672 10.6308C190.878 10.6028 191.172 10.582 191.57 10.582V4.582C190.459 4.582 189.254 4.68435 188.214 5.10057L190.442 10.6714ZM201.614 27H198.614V30H201.614V27ZM201.614 0.399998V-2.6H198.614V0.399998H201.614ZM206.668 0.399998H209.668V-2.6H206.668V0.399998ZM206.668 14.498H203.668V17.498H206.668V14.498ZM207.2 14.498V17.498H209.028L209.866 15.8747L207.2 14.498ZM210.772 7.582V4.582H208.945L208.107 6.20532L210.772 7.582ZM215.712 7.582L218.364 8.98512L220.694 4.582H215.712V7.582ZM211.228 16.056L208.577 14.6529L207.918 15.8988L208.456 17.2016L211.228 16.056ZM215.75 27V30H220.236L218.523 25.8544L215.75 27ZM210.734 27L207.959 28.1398L208.723 30H210.734V27ZM207.238 18.488L210.014 17.3482L209.249 15.488H207.238V18.488ZM206.668 18.488V15.488H203.668V18.488H206.668ZM206.668 27V30H209.668V27H206.668ZM204.614 27V0.399998H198.614V27H204.614ZM201.614 3.4H206.668V-2.6H201.614V3.4ZM203.668 0.399998V14.498H209.668V0.399998H203.668ZM206.668 17.498H207.2V11.498H206.668V17.498ZM209.866 15.8747L213.438 8.95867L208.107 6.20532L204.535 13.1213L209.866 15.8747ZM210.772 10.582H215.712V4.582H210.772V10.582ZM213.061 6.17888L208.577 14.6529L213.88 17.4591L218.364 8.98512L213.061 6.17888ZM208.456 17.2016L212.978 28.1456L218.523 25.8544L214.001 14.9104L208.456 17.2016ZM215.75 24H210.734V30H215.75V24ZM213.51 25.8602L210.014 17.3482L204.463 19.6278L207.959 28.1398L213.51 25.8602ZM207.238 15.488H206.668V21.488H207.238V15.488ZM203.668 18.488V27H209.668V18.488H203.668ZM206.668 24H201.614V30H206.668V24Z" fill="#85650D" mask="url(#path-1-outside-1_29_28)"/>
</g>
<defs>
<filter id="filter0_d_29_28" x="0.140015" y="0.399994" width="217.61" height="30.6" filterUnits="userSpaceOnUse" color-interpolation-filters="sRGB">
<feFlood flood-opacity="0" result="BackgroundImageFix"/>
<feColorMatrix in="SourceAlpha" type="matrix" values="0 0 0 0 0 0 0 0 0 0 0 0 0 0 0 0 0 0 127 0" result="hardAlpha"/>
<feOffset dy="2"/>
<feGaussianBlur stdDeviation="1"/>
<feComposite in2="hardAlpha" operator="out"/>
<feColorMatrix type="matrix" values="0 0 0 0 0 0 0 0 0 0 0 0 0 0 0 0 0 0 0.2 0"/>
<feBlend mode="normal" in2="BackgroundImageFix" result="effect1_dropShadow_29_28"/>
<feBlend mode="normal" in="SourceGraphic" in2="effect1_dropShadow_29_28" result="shape"/>
</filter>
</defs>
</svg>
