<svg width="36" height="58" viewBox="0 0 36 58" fill="none" xmlns="http://www.w3.org/2000/svg">
<path d="M25 17.5L18 10.5L11 17.5M25 8.5L18 1.5L11 8.5M12.4531 43.8831C12.4531 46.0331 14.1031 47.7664 16.1531 47.7664H20.3365C22.1198 47.7664 23.5698 46.2497 23.5698 44.3831C23.5698 42.3497 22.6865 41.6331 21.3698 41.1664L14.6531 38.8331C13.3365 38.3664 12.4531 37.6497 12.4531 35.6164C12.4531 33.7497 13.9031 32.2331 15.6865 32.2331H19.8698C21.9198 32.2331 23.5698 33.9664 23.5698 36.1164M18 30V50M23 56.6667H13C4.66668 56.6667 1.33334 53.3333 1.33334 45V35C1.33334 26.6667 4.66668 23.3333 13 23.3333H23C31.3333 23.3333 34.6667 26.6667 34.6667 35V45C34.6667 53.3333 31.3333 56.6667 23 56.6667Z" stroke="#14A33F" stroke-width="2" stroke-linecap="round" stroke-linejoin="round"/>
</svg>
