<svg width="36" height="58" viewBox="0 0 36 58" fill="none" xmlns="http://www.w3.org/2000/svg">
<path d="M12.4531 21.8831C12.4531 24.0331 14.1031 25.7664 16.1531 25.7664H20.3365C22.1198 25.7664 23.5698 24.2497 23.5698 22.3831C23.5698 20.3497 22.6865 19.6331 21.3698 19.1664L14.6531 16.8331C13.3365 16.3664 12.4531 15.6497 12.4531 13.6164C12.4531 11.7497 13.9031 10.2331 15.6865 10.2331H19.8698C21.9198 10.2331 23.5698 11.9664 23.5698 14.1164M18 8V28M11 40.5L18 47.5L25 40.5M11 49.5L18 56.5L25 49.5M23 34.6667H13C4.66668 34.6667 1.33334 31.3333 1.33334 23V13C1.33334 4.66667 4.66668 1.33334 13 1.33334H23C31.3333 1.33334 34.6667 4.66667 34.6667 13V23C34.6667 31.3333 31.3333 34.6667 23 34.6667Z" stroke="#E86D6D" stroke-width="2" stroke-linecap="round" stroke-linejoin="round"/>
</svg>
